<?xml version="1.0" standalone="no"?>
<!DOCTYPE svg PUBLIC "-//W3C//DTD SVG 20010904//EN"
 "http://www.w3.org/TR/2001/REC-SVG-20010904/DTD/svg10.dtd">
<svg version="1.0" xmlns="http://www.w3.org/2000/svg"
 width="1080.000000pt" height="1080.000000pt" viewBox="0 0 1080.000000 1080.000000"
 preserveAspectRatio="xMidYMid meet">
<metadata>
Created by potrace 1.14, written by Peter Selinger 2001-2017
</metadata>
<g transform="translate(0.000000,1080.000000) scale(0.100000,-0.100000)"
fill="#000000" stroke="none">
<path d="M5309 10748 c-41 -29 -106 -75 -145 -103 -40 -27 -134 -94 -210 -147
-77 -53 -164 -114 -194 -136 -30 -21 -98 -68 -150 -105 -52 -36 -99 -69 -105
-74 -5 -5 -62 -44 -125 -88 -63 -43 -191 -133 -285 -198 -93 -66 -285 -200
-425 -298 -140 -98 -295 -207 -344 -241 -49 -35 -122 -85 -161 -113 -40 -27
-165 -115 -279 -195 -113 -80 -282 -198 -374 -262 -92 -64 -175 -123 -184
-130 -9 -7 -279 -197 -600 -422 -321 -224 -662 -464 -758 -531 -96 -68 -206
-146 -245 -173 -38 -26 -131 -91 -205 -144 -74 -52 -175 -123 -225 -158 -50
-34 -136 -94 -193 -133 l-102 -71 2 -1630 3 -1630 86 -61 c48 -33 290 -202
538 -375 248 -173 619 -432 824 -576 473 -331 1372 -958 1812 -1265 187 -131
365 -255 395 -276 30 -22 228 -160 440 -308 212 -148 588 -411 835 -584 248
-173 455 -314 460 -314 6 0 125 80 265 178 140 98 289 201 330 229 41 28 77
54 78 58 2 5 10 8 18 8 8 0 17 7 21 16 3 8 12 13 20 10 8 -3 11 -1 8 4 -3 6
-2 10 3 10 5 0 19 9 32 20 13 12 29 18 36 16 9 -3 11 1 7 11 -5 13 -2 15 15
11 12 -4 20 -2 17 2 -3 5 32 34 77 66 46 32 85 60 88 64 3 3 43 31 90 63 99
67 297 204 331 229 13 10 61 44 107 75 45 32 120 84 165 116 45 31 91 63 101
70 10 6 31 21 45 32 14 11 46 34 71 50 25 17 50 34 55 38 6 4 66 47 135 94 69
48 127 91 128 95 2 4 8 8 14 8 6 0 27 13 48 30 21 16 42 30 48 30 6 0 12 4 14
8 3 8 179 133 240 171 21 12 38 27 38 32 0 5 4 9 9 9 9 0 238 155 251 170 5 5
140 98 169 115 9 6 18 13 21 16 3 3 34 26 70 50 303 210 366 254 375 262 13
10 257 180 405 282 63 43 117 81 120 84 3 3 48 35 100 71 52 35 100 68 105 73
6 4 233 163 505 353 272 189 502 350 510 357 9 7 39 28 68 47 l52 35 0 1625
-1 1625 -47 33 c-26 19 -114 81 -197 138 -339 237 -425 299 -425 309 0 5 -17
21 -37 35 -21 14 -168 115 -328 224 -387 266 -461 316 -468 316 -6 0 -281 191
-777 539 -129 90 -323 226 -430 301 -107 75 -226 158 -265 185 -38 27 -142
100 -230 161 -88 62 -187 131 -220 154 -269 187 -361 250 -370 257 -5 5 -46
34 -90 64 -62 43 -410 286 -675 472 -14 9 -86 60 -160 112 -74 53 -166 117
-205 143 -38 26 -76 52 -85 59 -17 14 -221 156 -324 226 -37 26 -71 47 -75 47
-4 0 -41 -24 -82 -52z m5411 -3782 c0 -2 -8 -10 -17 -17 -16 -13 -17 -12 -4 4
13 16 21 21 21 13z m-200 -140 c0 -2 -8 -10 -17 -17 -16 -13 -17 -12 -4 4 13
16 21 21 21 13z m-145 -106 c-3 -5 -12 -10 -18 -10 -7 0 -6 4 3 10 19 12 23
12 15 0z m-45 -24 c0 -2 -8 -10 -17 -17 -16 -13 -17 -12 -4 4 13 16 21 21 21
13z"/>
</g>
</svg>
